<?xml version="1.0" encoding="utf-8"?>
<!-- Generator: Adobe Illustrator 25.0.1, SVG Export Plug-In . SVG Version: 6.00 Build 0)  -->
<svg version="1.1" xmlns="http://www.w3.org/2000/svg" xmlns:xlink="http://www.w3.org/1999/xlink" x="0px" y="0px"
	 viewBox="0 0 160 90" style="enable-background:new 0 0 160 90;" xml:space="preserve">
<style type="text/css">
	.st0{display:none;}
	.st1{display:inline;}
	.st2{fill:#4DFFFF;stroke:#000000;stroke-miterlimit:10;}
	.st3{fill:url(#SVGID_1_);stroke:#000000;stroke-miterlimit:10;}
	.st4{fill:none;stroke:#000000;stroke-miterlimit:10;}
	.st5{fill:#3DCC3D;stroke:#000000;stroke-miterlimit:10;}
	.st6{fill:url(#SVGID_2_);stroke:#0000FF;stroke-miterlimit:10;}
	.st7{fill:url(#SVGID_3_);stroke:#0000FF;stroke-miterlimit:10;}
	.st8{display:inline;fill:none;}
	.st9{display:inline;fill:none;stroke:#000000;stroke-miterlimit:10;}
	.st10{display:inline;fill:#3DCC66;stroke:#000000;stroke-width:2;stroke-miterlimit:10;}
	.st11{display:inline;fill:#00CC66;stroke:#000000;stroke-width:2;stroke-miterlimit:10;}
</style>
<g id="Layer_7" class="st0">
	<g id="Layer_1" class="st1">
		<path class="st2" d="M115.78,27.11c-1.78-0.37-3.65-0.08-5.38,0.46c-5.07,1.56-9.32,5.01-13.25,8.57
			c-1.73-3.74-6.39-5.56-10.43-4.76c-4.04,0.8-7.4,3.77-9.53,7.29c-3.57,0.01-7.28-0.29-10.75,0.54c-3.46,0.83-6.83,2.58-8.94,5.46
			c-0.52,0.71-0.97,1.56-0.9,2.44c0.15,1.68,2,2.58,3.59,3.15c1.38,0.5,2.77,0.99,4.15,1.49c0.98,0.36,2.14,0.92,2.22,1.96
			c0.04,0.54-0.24,1.06-0.61,1.45c-1,1.09-2.57,1.4-4.03,1.64c-4.72,0.77-9.51,1.38-14.27,1.04c-1.87-0.14-3.76-0.41-5.59-0.14
			C40.72,53.71,40,49.44,40,45C40,22.91,57.91,5,80,5C95.66,5,109.22,14,115.78,27.11z"/>
		<linearGradient id="SVGID_1_" gradientUnits="userSpaceOnUse" x1="42.06" y1="55.972" x2="120" y2="55.972">
			<stop  offset="0" style="stop-color:#3D0066"/>
			<stop  offset="1" style="stop-color:#3DA366"/>
		</linearGradient>
		<path class="st3" d="M120,45c0,22.09-17.91,40-40,40c-17.65,0-32.63-11.43-37.94-27.3c1.83-0.27,3.72,0,5.59,0.14
			c4.76,0.34,9.55-0.27,14.27-1.04c1.46-0.24,3.03-0.55,4.03-1.64c0.37-0.39,0.65-0.91,0.61-1.45c-0.08-1.04-1.24-1.6-2.22-1.96
			c-1.38-0.5-2.77-0.99-4.15-1.49c-1.59-0.57-3.44-1.47-3.59-3.15c-0.07-0.88,0.38-1.73,0.9-2.44c2.11-2.88,5.48-4.63,8.94-5.46
			c3.47-0.83,7.18-0.53,10.75-0.54c2.13-3.52,5.49-6.49,9.53-7.29c4.04-0.8,8.7,1.02,10.43,4.76c3.93-3.56,8.18-7.01,13.25-8.57
			c1.73-0.54,3.6-0.83,5.38-0.46C118.48,32.5,120,38.57,120,45z"/>
	</g>
	<g id="Layer_4" class="st1">
		<path class="st4" d="M40.9,65.17c-1.9,0.76-4.01-1.46-3.68-3.49c0.32-2.02,2.29-3.44,4.3-3.88c0.18-0.04,0.36-0.07,0.54-0.1"/>
		<path class="st4" d="M115.78,27.11c0.08,0.01,0.16,0.03,0.24,0.05c1.85,0.44,3.57,1.76,4.1,3.59"/>
	</g>
	<g id="Layer_2" class="st1">
		<path class="st5" d="M67.15,14.73c2.48,1.27,4.38,3.46,5.79,5.86c3.09,5.27,3.96,11.55,4.13,17.66
			c-4.09,0.27-8.38,0.51-12.12-1.18c-3.23-1.47-5.71-4.28-7.28-7.46c-1.57-3.18-2.28-6.71-2.65-10.24c-0.26-2.53-0.4-5.74,2.43-6.19
			C60.46,12.7,64.46,13.34,67.15,14.73z"/>
		<path class="st4" d="M64.71,25.49c0.68,0.97,1.46,1.86,2.33,2.67c1.73,1.62,3.78,2.87,5.55,4.44c1.78,1.57,3.34,3.59,3.61,5.94"/>
	</g>
	<g id="Layer_5" class="st1">
		<path class="st4" d="M97.13,35.87C89,50,87,68,83.93,84.46"/>
	</g>
</g>
<g id="Layer_6" class="st0">
</g>
<g id="Layer_6_copy">
	
		<linearGradient id="SVGID_2_" gradientUnits="userSpaceOnUse" x1="126.7772" y1="30.1512" x2="59.5471" y2="30.1512" gradientTransform="matrix(0.9409 0.3388 -0.3388 0.9409 14.436 -27.6233)">
		<stop  offset="0" style="stop-color:#3D0066"/>
		<stop  offset="1" style="stop-color:#3DCC66"/>
	</linearGradient>
	<path class="st6" d="M118.17,58.49c-1.67,0.39-23.57,4.97-40.57-11.37C61.76,31.9,63.94,12.08,64.24,9.83
		c8.98-3.86,19.38-4.45,29.3-0.88C113.78,16.24,124.54,38.16,118.17,58.49z"/>
	<linearGradient id="SVGID_3_" gradientUnits="userSpaceOnUse" x1="40" y1="54.2899" x2="120" y2="54.2899">
		<stop  offset="0" style="stop-color:#000066"/>
		<stop  offset="1" style="stop-color:#00CC66"/>
	</linearGradient>
	<path class="st7" d="M120,48.91c0,22.09-17.91,40-40,40S40,71,40,48.91c0-11.55,4.89-21.95,12.73-29.25
		c0.48,2.22,5.14,21.61,25.21,30.57c21.53,9.61,40.58-2.12,42.02-3.05C119.99,47.75,120,48.33,120,48.91z"/>
</g>
<g id="Layer_10" class="st0">
	<path class="st8" d="M52.73,15.75v-0.01"/>
</g>
<g id="Layer_8" class="st0">
	<line class="st9" x1="39.82" y1="45" x2="120.18" y2="45"/>
</g>
<g id="Layer_9" class="st0">
	<path class="st10" d="M77.49,42.56c-1.15-0.38-2.27-2.11-2.8-2.81c-2.57-3.38-4.24-7.39-5.14-11.52c-0.51-2.35-0.77-4.76-0.8-7.16
		c-0.01-0.85,0.01-1.7,0.24-2.52c0.3-1.05,0.95-1.98,1.65-2.82c1.73-2.06,3.87-3.74,6.08-5.28c1.86-1.3,3.9-2.56,6.17-2.68
		c0.79-0.04,1.61,0.07,2.27,0.5c0.53,0.35,0.91,0.87,1.28,1.39c2.1,2.98,4.09,6.2,4.63,9.8c0.38,2.53,0.02,5.11-0.45,7.62
		c-0.48,2.59-1.1,5.2-2.35,7.53c-0.62,1.15-1.42,2.26-2.56,2.91c-1.07,0.6-2.32,0.74-3.5,1.08c-0.87,0.24-1.78,0.64-2.38,1.33
		c-0.62,0.72-0.41,1.96-1.27,2.5c-1.24,0.78-1.39-0.58-1.48-1.48c-0.77-8.36,0.79-16.74,2.34-24.99"/>
	<path class="st11" d="M80.39,50.38c0.72,0,2.09,0.96,2.5,1.15c2.19,1.01,4.45,1.86,6.61,2.94c9.76,4.9,16.66,14.37,20.74,24.43
		c0.33,0.82,0.54,1.68,0.71,2.55c0.08,0.39,0.13,0.79,0.01,1.17c-0.16,0.5-0.61,0.86-1.05,1.15c-0.98,0.65-2.06,1.18-3.23,1.33
		c-0.75,0.1-1.53,0.04-2.25-0.2c-0.76-0.26-1.45-0.71-2.1-1.18c-8.08-5.75-14.06-14.38-16.61-23.96c-0.41-1.52-0.75-3.11-1.68-4.38
		c-0.72-0.98-1.73-1.68-2.61-2.52c-0.43-0.41-1.38-1.19-1.42-1.83c-0.11-1.5,1.69,0.52,2.13,0.88c2.38,1.95,4.97,3.63,7.41,5.5
		c8.29,6.38,14.79,15.07,18.56,24.83"/>
	<path class="st11" d="M73.95,47.84c-0.16-0.09-0.36-0.18-0.62-0.25c-2.87-0.78-6.65,2.27-8.89,3.73
		c-6.18,4.02-12.57,8.33-16.15,14.77c-2.62,4.7-3.51,10.35-2.47,15.63c0.18,0.93,0.46,1.91,1.17,2.55c0.7,0.62,1.7,0.8,2.63,0.72
		c1.12-0.09,2.2-0.51,3.13-1.14c1.34-0.91,2.33-2.23,3.25-3.56c4.28-6.18,7.54-13,11.54-19.36c1.3-2.07,2.69-4.1,3.76-6.3
		c0.74-1.53,1.34-3.13,2.35-4.52c0.37-0.51,1.34-1.83,0.31-2.21c-0.67-0.24-1.98,0.99-2.47,1.36c-1.7,1.28-3.22,2.79-4.66,4.34
		c-6.56,7.03-12.03,15.08-16.16,23.77c-0.57,1.21-1.12,2.44-1.43,3.74c-0.21,0.9-0.3,1.84-0.27,2.77"/>
</g>
</svg>
